<?xml version="1.0" standalone="no"?>
<!DOCTYPE svg PUBLIC "-//W3C//DTD SVG 20010904//EN"
 "http://www.w3.org/TR/2001/REC-SVG-20010904/DTD/svg10.dtd">
<svg version="1.0" xmlns="http://www.w3.org/2000/svg"
 width="512.000000pt" height="512.000000pt" viewBox="0 0 512.000000 512.000000"
 preserveAspectRatio="xMidYMid meet">
<metadata>
Created by potrace 1.14, written by Peter Selinger 2001-2017
</metadata>
<g transform="translate(0.000000,512.000000) scale(0.100000,-0.100000)"
fill="#000000" stroke="none">
<path d="M23 4074 c3 -4 2 -15 -4 -25 -7 -14 -6 -19 2 -19 8 0 8 -4 -1 -15 -7
-9 -8 -15 -2 -15 6 0 7 -13 2 -35 -5 -22 -4 -35 2 -35 6 0 4 -8 -3 -17 -12
-15 -12 -16 1 -8 13 8 13 7 1 -8 -7 -9 -9 -17 -3 -17 6 0 7 -13 2 -35 -5 -22
-4 -35 2 -35 6 0 4 -8 -3 -17 -12 -15 -12 -16 1 -8 13 8 13 7 1 -8 -7 -9 -9
-17 -3 -17 6 0 7 -13 2 -35 -5 -22 -4 -35 2 -35 6 0 4 -8 -3 -17 -12 -15 -12
-16 1 -8 13 8 13 7 1 -8 -7 -9 -9 -17 -3 -17 6 0 7 -13 2 -35 -5 -22 -4 -35 2
-35 6 0 4 -8 -3 -17 -12 -15 -12 -16 1 -8 13 8 13 7 1 -8 -7 -9 -9 -17 -3 -17
6 0 7 -13 2 -35 -5 -22 -4 -35 2 -35 6 0 4 -8 -3 -17 -12 -15 -12 -16 1 -8 13
8 13 7 1 -8 -7 -9 -9 -17 -3 -17 6 0 7 -13 2 -35 -5 -22 -4 -35 2 -35 6 0 4
-8 -3 -17 -12 -15 -12 -16 1 -8 13 8 13 7 1 -8 -7 -9 -9 -17 -3 -17 6 0 7 -13
2 -35 -5 -22 -4 -35 2 -35 6 0 4 -8 -3 -17 -12 -15 -12 -16 1 -8 13 8 13 7 1
-8 -7 -9 -9 -17 -3 -17 6 0 7 -13 2 -35 -5 -22 -4 -35 2 -35 6 0 4 -8 -3 -17
-12 -15 -12 -16 1 -8 13 8 13 7 1 -8 -7 -9 -9 -17 -3 -17 6 0 7 -13 2 -35 -5
-22 -4 -35 2 -35 6 0 4 -8 -3 -17 -12 -15 -12 -16 1 -8 13 8 13 7 1 -8 -7 -9
-9 -17 -3 -17 6 0 7 -13 2 -35 -5 -22 -4 -35 2 -35 6 0 4 -8 -3 -17 -12 -15
-12 -16 1 -8 13 8 13 7 1 -8 -7 -9 -9 -17 -3 -17 6 0 7 -13 2 -35 -5 -22 -4
-35 2 -35 6 0 4 -8 -3 -17 -12 -15 -12 -16 1 -8 13 8 13 7 1 -8 -7 -9 -9 -17
-3 -17 6 0 7 -13 2 -35 -5 -22 -4 -35 2 -35 6 0 4 -8 -3 -17 -12 -15 -12 -16
1 -8 13 8 13 7 1 -8 -7 -9 -9 -17 -3 -17 6 0 7 -13 2 -35 -5 -22 -4 -35 2 -35
6 0 4 -8 -3 -17 -12 -15 -12 -16 1 -8 13 8 13 7 1 -8 -7 -9 -9 -17 -3 -17 6 0
7 -13 2 -35 -5 -22 -4 -35 2 -35 6 0 4 -8 -3 -17 -12 -15 -12 -16 1 -8 13 8
13 7 1 -8 -7 -9 -9 -17 -3 -17 6 0 7 -13 2 -35 -5 -22 -4 -35 2 -35 6 0 4 -8
-3 -17 -12 -15 -12 -16 1 -8 13 8 13 7 1 -8 -7 -9 -9 -17 -3 -17 6 0 7 -13 2
-35 -5 -22 -4 -35 2 -35 6 0 4 -8 -3 -17 -12 -15 -12 -16 1 -8 13 8 13 7 1 -8
-7 -9 -9 -17 -3 -17 6 0 7 -13 2 -35 -5 -22 -4 -35 2 -35 6 0 4 -8 -3 -17 -12
-15 -12 -16 1 -8 13 8 13 7 1 -8 -7 -9 -9 -17 -3 -17 6 0 7 -13 2 -35 -5 -22
-4 -35 2 -35 6 0 4 -8 -3 -17 -12 -15 -12 -16 1 -8 13 8 13 7 1 -8 -7 -9 -9
-17 -3 -17 6 0 7 -13 2 -35 -5 -22 -4 -35 2 -35 6 0 4 -8 -3 -17 -12 -15 -12
-16 1 -8 13 8 13 7 1 -8 -7 -9 -9 -17 -3 -17 6 0 7 -13 2 -35 -5 -22 -4 -35 2
-35 6 0 4 -8 -3 -17 -12 -15 -12 -16 1 -8 13 8 13 7 1 -8 -7 -9 -9 -17 -3 -17
6 0 7 -13 2 -35 -5 -22 -4 -35 2 -35 6 0 4 -8 -3 -17 -12 -15 -12 -16 1 -8 13
8 13 7 1 -8 -7 -9 -9 -17 -3 -17 6 0 7 -13 2 -35 -5 -22 -4 -35 2 -35 6 0 4
-8 -3 -17 -12 -15 -12 -16 1 -8 13 8 13 7 1 -8 -7 -9 -9 -17 -3 -17 6 0 7 -13
2 -35 -5 -22 -4 -35 2 -35 6 0 4 -8 -3 -17 -12 -15 -12 -16 1 -8 13 8 13 7 1
-8 -7 -9 -9 -17 -3 -17 6 0 7 -13 2 -35 -5 -21 -4 -35 2 -35 5 0 6 -5 3 -10
-8 -13 34 -7 64 9 11 6 24 11 28 10 20 -3 34 2 28 11 -3 6 1 7 10 4 8 -4 21
-2 28 4 6 5 20 10 30 11 40 3 47 5 47 12 0 5 6 6 12 4 9 -4 13 -30 11 -90 l-1
-86 40 6 c22 4 52 11 67 17 14 6 32 10 40 9 8 -2 10 2 5 11 -6 10 -4 10 9 -1
13 -11 17 -11 17 -1 0 8 3 11 6 8 3 -4 21 0 40 8 19 8 34 11 34 8 0 -4 6 -2
13 4 14 12 89 33 124 36 11 0 19 4 16 8 -2 5 5 9 16 9 24 2 30 3 53 13 9 4 25
9 35 11 10 2 19 4 21 5 1 2 7 4 12 5 6 1 11 3 13 5 2 2 24 7 51 13 8 2 21 9
30 16 13 11 16 11 16 0 0 -10 3 -10 12 -1 7 7 22 12 35 12 13 0 23 4 23 8 0 7
16 11 58 14 6 1 12 5 12 9 0 4 11 6 25 5 13 -2 22 1 19 5 -3 5 3 10 13 11 49
4 71 10 105 29 10 5 27 9 37 9 11 0 23 5 26 11 4 6 13 8 20 5 7 -2 16 -1 21 4
5 5 24 11 43 14 19 2 37 8 40 13 3 4 15 9 26 11 57 8 81 14 90 25 6 7 22 11
38 9 15 -2 27 1 27 6 0 9 41 21 88 25 12 1 22 5 22 8 0 4 7 10 16 13 10 4 13
2 8 -7 -4 -6 2 -4 13 6 11 9 22 15 25 12 3 -3 21 1 40 9 20 9 38 12 42 9 3 -4
6 -1 6 5 0 6 9 9 20 7 11 -2 20 0 20 4 0 4 6 8 13 9 38 4 107 27 107 36 0 6 5
4 10 -4 6 -10 10 -11 10 -2 0 6 9 12 20 12 11 0 20 5 20 10 0 6 5 10 11 10 5
0 7 -6 3 -12 -6 -9 -3 -9 9 1 9 7 24 11 32 7 9 -3 18 0 21 7 2 7 14 13 25 14
11 1 33 8 49 17 21 10 30 11 30 3 0 -9 3 -8 8 0 5 7 21 14 36 15 16 2 31 8 33
15 3 7 9 10 14 7 8 -4 34 2 99 24 8 3 26 7 40 9 13 2 29 8 35 13 6 5 22 11 35
14 73 14 90 19 90 27 0 4 9 6 20 4 11 -2 20 1 20 6 0 6 4 8 9 4 5 -3 12 -1 15
3 3 5 16 9 28 8 13 -1 26 2 29 7 4 5 18 10 32 10 14 1 23 6 19 11 -3 5 2 7 11
3 10 -3 17 -2 17 4 0 6 5 7 10 4 6 -3 16 -3 23 2 14 9 19 10 48 12 11 0 18 5
15 10 -3 5 4 9 17 10 41 1 57 4 57 12 0 4 8 6 18 5 9 -2 19 0 22 5 5 6 37 14
73 18 5 1 6 5 2 10 -3 6 4 8 16 6 13 -3 29 1 37 8 8 6 16 10 16 8 1 -2 21 2
46 9 25 7 51 13 58 13 6 0 12 4 12 9 0 5 4 7 9 3 5 -3 12 -1 16 5 4 6 10 8 15
5 5 -3 17 -1 27 4 20 11 74 25 86 23 4 -1 7 1 7 6 0 4 12 8 27 9 15 0 32 9 39
18 7 9 14 11 15 6 3 -7 23 -4 55 9 29 10 54 16 58 13 3 -4 6 0 6 7 0 7 3 11 6
7 3 -3 23 1 45 8 21 8 39 12 39 8 0 -3 6 -1 13 4 6 6 20 9 30 8 9 -2 15 1 11
6 -4 8 25 14 49 10 4 0 7 3 7 7 0 5 6 9 13 10 44 6 57 9 70 20 7 7 16 9 19 6
3 -3 22 2 42 10 20 8 36 12 36 8 0 -3 5 -1 11 5 6 6 18 9 25 6 8 -3 14 -1 14
4 0 5 12 10 26 11 15 1 34 8 42 15 8 6 16 10 16 8 2 -7 106 22 106 30 0 4 11
6 24 5 14 -2 27 2 30 9 2 8 15 11 30 8 20 -4 26 -1 27 13 0 11 3 14 5 7 5 -11
13 -11 52 4 9 3 20 7 24 7 3 1 9 4 13 8 4 4 13 4 21 1 8 -3 14 0 14 7 0 7 7
10 17 6 9 -4 19 -2 22 3 3 5 20 11 36 12 17 2 33 8 36 13 4 4 21 9 39 11 18 2
35 7 39 11 3 5 11 9 16 9 22 1 81 18 92 27 7 5 17 7 23 3 5 -3 10 -1 10 5 0 6
5 8 10 5 6 -3 16 -3 23 2 6 4 21 9 32 10 10 2 22 7 25 11 3 4 14 7 25 7 11 0
26 6 33 15 12 13 12 13 6 0 -7 -13 -5 -13 9 -2 9 8 20 11 25 8 5 -3 18 1 28 9
18 14 18 14 1 15 -10 0 -16 4 -13 9 4 5 -3 7 -14 4 -11 -3 -20 -1 -20 3 0 5
-11 10 -25 11 -46 4 -55 6 -55 15 0 5 -5 6 -10 3 -6 -4 -17 -1 -25 5 -8 7 -15
9 -15 4 0 -5 -5 -2 -10 6 -9 13 -10 13 -10 0 0 -12 -2 -12 -9 -2 -4 7 -17 15
-27 16 -10 2 -18 9 -16 16 1 6 -2 9 -8 5 -5 -3 -10 1 -10 9 0 10 -10 16 -25
17 -28 2 -33 3 -57 13 -9 4 -23 9 -32 10 -8 1 -19 5 -22 9 -4 4 -20 7 -36 7
-17 0 -27 4 -23 10 4 6 3 10 -2 9 -24 -4 -63 2 -59 9 3 5 -5 8 -17 6 -12 -1
-32 5 -44 12 -13 8 -23 12 -23 10 0 -3 -18 1 -40 9 -43 15 -42 15 -66 15 -8 0
-13 4 -10 9 4 5 -5 8 -19 6 -14 -1 -25 2 -25 7 0 5 -4 7 -9 3 -5 -3 -12 -1
-16 4 -3 6 -12 8 -20 4 -8 -3 -15 0 -15 5 0 6 -9 9 -20 7 -11 -2 -26 2 -33 9
-7 7 -20 12 -30 10 -9 -1 -24 4 -32 13 -12 11 -15 11 -15 1 0 -9 -3 -9 -8 -2
-4 6 -17 10 -30 9 -12 -1 -27 4 -33 12 -6 7 -15 10 -20 7 -5 -3 -9 0 -9 6 0 6
-5 8 -10 5 -6 -4 -16 -3 -23 2 -7 5 -19 9 -27 8 -8 0 -20 5 -27 11 -6 6 -23
10 -37 9 -14 -2 -26 1 -26 6 0 5 -9 9 -20 9 -11 0 -20 5 -20 11 0 5 -4 8 -10
4 -5 -3 -25 1 -45 9 -25 11 -34 12 -29 3 5 -9 3 -9 -7 1 -7 6 -21 12 -31 12
-10 0 -18 4 -18 9 0 4 -12 8 -27 7 -16 0 -27 4 -26 10 1 6 -9 10 -22 8 -14 -1
-28 2 -31 8 -4 6 -10 5 -15 -3 -6 -10 -9 -10 -9 -2 0 7 -10 17 -21 24 -15 8
-19 8 -15 0 4 -6 2 -11 -3 -11 -6 0 -11 4 -11 8 0 4 -30 15 -68 25 -37 10 -78
23 -92 30 -14 6 -34 12 -45 12 -11 -1 -22 2 -25 5 -3 3 -20 10 -37 17 -25 8
-33 8 -33 0 0 -8 -3 -9 -8 -1 -8 11 -37 26 -62 30 -24 5 -55 12 -55 14 0 1 -7
3 -15 6 -86 23 -110 31 -105 36 3 3 -6 4 -20 3 -14 -2 -27 1 -31 6 -3 5 -10 7
-15 4 -5 -4 -9 -1 -9 5 0 7 -6 10 -14 7 -8 -3 -17 -3 -20 1 -7 6 -30 12 -53
14 -7 1 -13 5 -13 9 0 5 -7 6 -15 3 -8 -4 -15 -1 -15 6 0 6 -3 9 -7 7 -5 -3
-38 5 -75 17 -37 12 -64 18 -61 13 3 -5 -5 -2 -19 7 -13 8 -33 17 -43 19 -11
1 -26 6 -32 10 -7 5 -13 5 -13 1 0 -3 -6 -1 -14 5 -11 9 -15 9 -19 -1 -3 -8
-6 -6 -6 5 -1 10 -6 15 -11 12 -6 -4 -22 1 -37 10 -14 9 -22 12 -19 6 4 -6 3
-11 -3 -11 -5 0 -13 5 -16 10 -4 6 -11 8 -16 5 -5 -4 -9 -1 -9 5 0 6 -4 9 -8
6 -5 -3 -19 1 -33 8 -13 7 -30 11 -37 8 -6 -2 -12 0 -12 5 0 6 -10 9 -22 8
-13 -1 -38 7 -56 17 -19 10 -31 14 -27 8 3 -5 1 -10 -4 -10 -6 0 -11 5 -11 10
0 6 -11 10 -25 10 -14 0 -25 4 -25 8 0 4 -12 9 -27 10 -16 1 -29 6 -31 12 -2
5 -10 6 -18 3 -8 -3 -21 1 -30 8 -8 7 -29 14 -46 16 -17 2 -36 7 -42 11 -6 5
-21 7 -33 6 -13 0 -23 3 -23 7 0 5 -18 12 -40 15 -22 4 -40 11 -40 16 0 5 -5
6 -11 3 -5 -4 -22 -2 -37 4 -89 35 -102 39 -144 43 -10 1 -18 6 -18 10 0 4
-10 8 -23 8 -13 0 -27 3 -31 7 -3 4 -16 8 -28 10 -12 2 -28 9 -37 16 -12 10
-13 9 -6 -3 6 -12 5 -13 -6 -2 -7 6 -23 12 -36 12 -13 0 -23 4 -23 8 0 4 -12
9 -26 10 -15 1 -32 6 -38 11 -6 4 -18 8 -26 8 -22 1 -44 7 -51 15 -3 5 -17 9
-32 10 -15 1 -27 7 -27 12 0 5 -3 7 -6 3 -4 -3 -22 0 -41 8 -19 8 -37 14 -41
14 -4 -1 -10 0 -14 1 -5 1 -11 3 -15 4 -5 1 -19 8 -32 15 -20 11 -22 11 -15
-1 6 -11 5 -11 -9 1 -9 7 -17 10 -17 6 0 -4 -6 -3 -13 3 -7 6 -25 13 -41 16
-15 3 -35 11 -44 18 -13 11 -14 11 -7 -2 8 -13 6 -13 -8 -1 -9 7 -23 11 -30 8
-7 -3 -21 1 -31 9 -11 7 -23 11 -27 8 -5 -3 -9 0 -9 6 0 6 -4 8 -10 5 -5 -3
-10 -2 -10 2 0 5 -8 9 -17 10 -45 4 -76 12 -86 22 -6 6 -21 11 -32 11 -12 0
-25 3 -28 7 -4 3 -21 8 -39 10 -18 2 -35 7 -38 13 -3 5 -18 7 -32 6 -15 -2
-25 0 -23 5 3 4 -9 11 -27 14 -18 4 -39 12 -45 17 -7 6 -13 8 -13 5 0 -3 -15
-1 -32 4 -18 6 -44 12 -58 15 -13 3 -30 10 -37 16 -7 6 -13 7 -13 3 0 -4 -6
-2 -13 4 -8 6 -17 8 -20 4 -4 -3 -13 -1 -20 5 -8 7 -17 9 -20 5 -4 -3 -7 -1
-7 6 0 7 -10 10 -25 7 -14 -3 -28 1 -32 8 -5 7 -18 13 -30 13 -40 1 -44 3 -38
13 3 6 -2 10 -11 10 -10 0 -14 -3 -11 -6z"/>
</g>
</svg>
